<?xml version="1.0" encoding="UTF-8" standalone="yes"?>
<!DOCTYPE svg PUBLIC "-//W3C//DTD SVG 1.1//EN" "http://www.w3.org/Graphics/SVG/1.1/DTD/svg11.dtd">

<svg width="286" height="62" viewBox="0 0 286 62" xmlns="http://www.w3.org/2000/svg" xmlns:xlink="http://www.w3.org/1999/xlink" version="1.1" baseProfile="full">
    <g transform="scale(1,-1) translate(0,-62)">
        <path d="M 43.988986 42.877982 L 73.451768 13.415201 C 57.179923 -2.856644 30.798050 -2.856644 14.526205 13.415201 C -1.668170 29.609576 -1.756532 55.838464 14.328362 72.141584 Z" transform="scale(0.720000,0.720000) translate(-1.388889,0.000000)" fill="#ffffff" opacity="1.000000"></path>
        <path d="M 3.880086 1.290498 L 2.128091 42.920311 C 25.119603 43.887911 44.542299 26.034003 45.509899 3.042492 C 45.531353 2.532715 45.543442 2.022587 45.546158 1.512366 Z" transform="scale(0.720000,0.720000) translate(41.666665,40.277776)" fill="#ffffff" opacity="1.000000"></path>
        <path d="M 15.550428 1.834641 L 10.789078 10.988720 L 10.727641 10.988720 L 9.130285 1.834641 L 2.218648 1.834641 L 6.058447 23.583258 L 12.939365 23.583258 L 11.464883 15.258576 L 11.557038 15.258576 L 18.437956 23.583258 L 27.100541 23.583258 L 17.332094 13.077570 L 24.059421 1.834641 Z M 37.483356 1.834641 L 29.558012 1.834641 L 26.424737 23.583258 L 34.073615 23.583258 L 35.056603 9.944295 L 35.179477 9.944295 L 41.722493 23.583258 L 49.924302 23.583258 Z M 61.597289 1.834641 L 61.105795 5.152227 L 54.040566 5.152227 L 52.228181 1.834641 L 44.302838 1.834641 L 57.665336 23.583258 L 65.160622 23.583258 L 68.969702 1.834641 Z M 59.877060 16.180127 L 56.774503 10.589381 L 60.522146 10.589381 Z M 82.915849 1.834641 L 79.936166 9.790703 L 79.076051 9.790703 L 77.724442 1.834641 L 70.874242 1.834641 L 74.714040 23.583258 L 83.653091 23.583258 Q 85.434757 23.583258 86.878521 23.183919 Q 88.322285 22.784580 89.335992 22.016621 Q 90.349699 21.248661 90.887271 20.127440 Q 91.424842 19.006219 91.424842 17.562455 Q 91.424842 14.859237 90.150029 13.108289 Q 88.875216 11.357341 86.663492 10.712254 L 90.902630 1.834641 Z M 81.349212 14.306306 Q 82.762257 14.306306 83.560935 14.782441 Q 84.359613 15.258576 84.359613 16.303001 Q 84.359613 17.255271 83.699168 17.608532 Q 83.038723 17.961794 81.902143 17.961794 L 80.581252 17.961794 L 79.936166 14.306306 Z M 105.524582 1.834641 L 101.224008 12.616794 L 101.101134 12.616794 L 99.411623 1.834641 L 92.499986 1.834641 L 96.339784 23.583258 L 103.312858 23.583258 L 107.705587 12.248174 L 107.828461 12.248174 L 109.610127 23.583258 L 116.521764 23.583258 L 112.681966 1.834641 Z M 131.112997 17.101679 Q 130.590785 17.716047 129.761388 18.100026 Q 128.931992 18.484006 127.826130 18.484006 Q 126.966015 18.484006 126.274852 18.115386 Q 125.583688 17.746765 125.583688 16.978805 Q 125.583688 16.364438 126.167337 16.026535 Q 126.750987 15.688633 127.887567 15.320012 Q 129.300613 14.859237 130.406475 14.275587 Q 131.512336 13.691938 132.280296 12.923978 Q 133.048256 12.156019 133.462954 11.173030 Q 133.877652 10.190042 133.877652 8.961306 Q 133.877652 6.872456 132.956101 5.397974 Q 132.034549 3.923491 130.606144 3.001939 Q 129.177739 2.080388 127.457509 1.650330 Q 125.737280 1.220273 124.109205 1.220273 Q 122.819033 1.220273 121.528861 1.435302 Q 120.238689 1.650330 119.056031 2.049670 Q 117.873373 2.449009 116.828948 3.032658 Q 115.784523 3.616307 115.016563 4.353548 L 119.870068 8.838433 Q 120.238689 8.408375 120.760901 8.070473 Q 121.283114 7.732571 121.851404 7.502183 Q 122.419694 7.271795 123.003343 7.133562 Q 123.586993 6.995330 124.078487 6.995330 Q 125.153630 6.995330 125.798717 7.348591 Q 126.443803 7.701853 126.443803 8.377657 Q 126.443803 8.930588 125.906231 9.360645 Q 125.368659 9.790703 123.894177 10.251479 Q 122.726878 10.620099 121.697812 11.111593 Q 120.668746 11.603088 119.916146 12.294251 Q 119.163545 12.985415 118.733488 13.953044 Q 118.303430 14.920673 118.303430 16.303001 Q 118.303430 17.992512 118.994594 19.436276 Q 119.685758 20.880040 120.960571 21.939825 Q 122.235384 22.999609 124.001691 23.598618 Q 125.767998 24.197626 127.887567 24.197626 Q 129.054866 24.197626 130.191446 23.997957 Q 131.328026 23.798287 132.341733 23.445026 Q 133.355440 23.091764 134.215554 22.600270 Q 135.075669 22.108776 135.659319 21.494408 Z M 148.561041 17.593173 L 145.796386 1.834641 L 138.669720 1.834641 L 141.434375 17.593173 L 135.935784 17.593173 L 137.010928 23.583258 L 154.950465 23.583258 L 153.875322 17.593173 Z M 165.210406 1.834641 L 162.230723 9.790703 L 161.370608 9.790703 L 160.018999 1.834641 L 153.168799 1.834641 L 157.008597 23.583258 L 165.947648 23.583258 Q 167.729314 23.583258 169.173078 23.183919 Q 170.616842 22.784580 171.630549 22.016621 Q 172.644256 21.248661 173.181828 20.127440 Q 173.719399 19.006219 173.719399 17.562455 Q 173.719399 14.859237 172.444586 13.108289 Q 171.169773 11.357341 168.958049 10.712254 L 173.197187 1.834641 Z M 163.643769 14.306306 Q 165.056814 14.306306 165.855492 14.782441 Q 166.654170 15.258576 166.654170 16.303001 Q 166.654170 17.255271 165.993725 17.608532 Q 165.333280 17.961794 164.196700 17.961794 L 162.875809 17.961794 L 162.230723 14.306306 Z M 189.324340 1.834641 L 188.832845 5.152227 L 181.767616 5.152227 L 179.955232 1.834641 L 172.029888 1.834641 L 185.392386 23.583258 L 192.887672 23.583258 L 196.696752 1.834641 Z M 187.604110 16.180127 L 184.501553 10.589381 L 188.249196 10.589381 Z M 211.625888 1.834641 L 207.325314 12.616794 L 207.202440 12.616794 L 205.512929 1.834641 L 198.601292 1.834641 L 202.441090 23.583258 L 209.414164 23.583258 L 213.806893 12.248174 L 213.929767 12.248174 L 215.711433 23.583258 L 222.623070 23.583258 L 218.783272 1.834641 Z M 226.739334 23.583258 L 235.739821 23.583258 Q 237.582924 23.583258 239.441387 23.076405 Q 241.299849 22.569552 242.789691 21.463690 Q 244.279533 20.357828 245.231803 18.591521 Q 246.184073 16.825213 246.184073 14.306306 Q 246.184073 11.449496 245.185725 9.130258 Q 244.187378 6.811019 242.405711 5.198304 Q 240.624045 3.585589 238.197292 2.710115 Q 235.770540 1.834641 232.913730 1.834641 L 222.899536 1.834641 Z M 230.917035 7.947600 L 233.220914 7.947600 Q 234.603241 7.947600 235.647666 8.423735 Q 236.692091 8.899870 237.398614 9.683189 Q 238.105137 10.466507 238.458398 11.464855 Q 238.811660 12.463202 238.811660 13.538346 Q 238.811660 14.367742 238.565913 15.104984 Q 238.320166 15.842225 237.797953 16.379797 Q 237.275741 16.917368 236.461703 17.239912 Q 235.647666 17.562455 234.541804 17.562455 L 232.637264 17.562455 Z M 261.389674 17.101679 Q 260.867461 17.716047 260.038065 18.100026 Q 259.208668 18.484006 258.102807 18.484006 Q 257.242692 18.484006 256.551528 18.115386 Q 255.860364 17.746765 255.860364 16.978805 Q 255.860364 16.364438 256.444014 16.026535 Q 257.027663 15.688633 258.164243 15.320012 Q 259.577289 14.859237 260.683151 14.275587 Q 261.789013 13.691938 262.556973 12.923978 Q 263.324932 12.156019 263.739630 11.173030 Q 264.154329 10.190042 264.154329 8.961306 Q 264.154329 6.872456 263.232777 5.397974 Q 262.311225 3.923491 260.882820 3.001939 Q 259.454416 2.080388 257.734186 1.650330 Q 256.013956 1.220273 254.385882 1.220273 Q 253.095710 1.220273 251.805537 1.435302 Q 250.515365 1.650330 249.332707 2.049670 Q 248.150049 2.449009 247.105624 3.032658 Q 246.061199 3.616307 245.293239 4.353548 L 250.146744 8.838433 Q 250.515365 8.408375 251.037578 8.070473 Q 251.559790 7.732571 252.128080 7.502183 Q 252.696371 7.271795 253.280020 7.133562 Q 253.863669 6.995330 254.355163 6.995330 Q 255.430307 6.995330 256.075393 7.348591 Q 256.720479 7.701853 256.720479 8.377657 Q 256.720479 8.930588 256.182907 9.360645 Q 255.645336 9.790703 254.170853 10.251479 Q 253.003554 10.620099 251.974488 11.111593 Q 250.945423 11.603088 250.192822 12.294251 Q 249.440222 12.985415 249.010164 13.953044 Q 248.580107 14.920673 248.580107 16.303001 Q 248.580107 17.992512 249.271270 19.436276 Q 249.962434 20.880040 251.237247 21.939825 Q 252.512060 22.999609 254.278367 23.598618 Q 256.044675 24.197626 258.164243 24.197626 Q 259.331542 24.197626 260.468122 23.997957 Q 261.604703 23.798287 262.618409 23.445026 Q 263.632116 23.091764 264.492231 22.600270 Q 265.352346 22.108776 265.935995 21.494408 Z M 281.755964 10.312915 Q 281.049441 10.097887 280.511869 9.591033 Q 279.974298 9.084180 279.974298 8.193347 Q 279.974298 7.425387 280.573306 6.995330 Q 281.172315 6.565272 281.878838 6.565272 Q 282.523924 6.565272 283.092214 6.764942 Q 283.660504 6.964611 284.090561 7.394669 Z M 286.517314 18.268977 Q 286.517314 18.883345 286.148693 19.267325 Q 285.780073 19.651305 285.104268 19.651305 Q 284.336308 19.651305 283.875533 19.159811 Q 283.414757 18.668317 283.414757 17.961794 Q 283.414757 17.439581 283.660504 16.917368 Q 283.906251 16.395156 284.305590 16.057254 Q 285.288578 16.395156 285.902946 16.978805 Q 286.517314 17.562455 286.517314 18.268977 Z M 278.929872 14.091277 Q 278.131194 14.982110 277.808651 15.980458 Q 277.486108 16.978805 277.486108 17.869638 Q 277.486108 19.129092 278.039039 20.265673 Q 278.591970 21.402253 279.605677 22.277727 Q 280.619384 23.153201 282.047789 23.675413 Q 283.476194 24.197626 285.227142 24.197626 Q 286.763061 24.197626 288.053233 23.844365 Q 289.343405 23.491103 290.264957 22.799939 Q 291.186509 22.108776 291.708721 21.048991 Q 292.230934 19.989207 292.230934 18.606880 Q 292.230934 16.425874 290.848606 15.012829 Q 289.466279 13.599783 287.131682 12.708950 L 288.391135 11.295904 L 290.295675 13.722656 L 297.790962 13.722656 L 292.230934 7.425387 L 297.084439 1.834641 L 288.606164 1.834641 L 287.438865 3.278405 Q 286.148693 2.356853 284.628133 1.865359 Q 283.107573 1.373865 281.448780 1.373865 Q 279.882142 1.373865 278.407660 1.696408 Q 276.933177 2.018951 275.796597 2.756192 Q 274.660017 3.493434 273.984212 4.660732 Q 273.308408 5.828031 273.308408 7.486824 Q 273.308408 9.852140 274.782890 11.510932 Q 276.257373 13.169725 278.929872 14.091277 Z" transform="scale(0.720000,0.720000) translate(86.111108,61.111109)" fill="#ffffff" opacity="1.000000"></path>
        <path d="M 18.296889 18.183228 Q 17.774677 18.797595 16.945280 19.181575 Q 16.115884 19.565555 15.010022 19.565555 Q 14.149907 19.565555 13.458744 19.196934 Q 12.767580 18.828314 12.767580 18.060354 Q 12.767580 17.445986 13.351229 17.108084 Q 13.934879 16.770182 15.071459 16.401561 Q 16.484505 15.940785 17.590367 15.357136 Q 18.696228 14.773487 19.464188 14.005527 Q 20.232148 13.237567 20.646846 12.254579 Q 21.061544 11.271591 21.061544 10.042855 Q 21.061544 7.954005 20.139993 6.479522 Q 19.218441 5.005040 17.790036 4.083488 Q 16.361631 3.161937 14.641401 2.731879 Q 12.921172 2.301822 11.293097 2.301822 Q 10.002925 2.301822 8.712753 2.516851 Q 7.422581 2.731879 6.239923 3.131218 Q 5.057265 3.530557 4.012840 4.114207 Q 2.968415 4.697856 2.200455 5.435097 L 7.053960 9.919982 Q 7.422581 9.489924 7.944793 9.152022 Q 8.467006 8.814120 9.035296 8.583732 Q 9.603586 8.353344 10.187235 8.215111 Q 10.770885 8.076878 11.262379 8.076878 Q 12.337522 8.076878 12.982609 8.430140 Q 13.627695 8.783401 13.627695 9.459206 Q 13.627695 10.012137 13.090123 10.442194 Q 12.552551 10.872252 11.078069 11.333027 Q 9.910770 11.701648 8.881704 12.193142 Q 7.852638 12.684636 7.100038 13.375800 Q 6.347437 14.066964 5.917380 15.034593 Q 5.487322 16.002222 5.487322 17.384550 Q 5.487322 19.074061 6.178486 20.517825 Q 6.869650 21.961589 8.144463 23.021373 Q 9.419276 24.081158 11.185583 24.680166 Q 12.951890 25.279175 15.071459 25.279175 Q 16.238758 25.279175 17.375338 25.079505 Q 18.511918 24.879836 19.525625 24.526574 Q 20.539332 24.173313 21.399446 23.681819 Q 22.259561 23.190325 22.843211 22.575957 Z M 35.744933 18.674722 L 32.980278 2.916190 L 25.853612 2.916190 L 28.618267 18.674722 L 23.119676 18.674722 L 24.194820 24.664807 L 42.134357 24.664807 L 41.059214 18.674722 Z M 52.394298 2.916190 L 49.414615 10.872252 L 48.554500 10.872252 L 47.202891 2.916190 L 40.352691 2.916190 L 44.192489 24.664807 L 53.131539 24.664807 Q 54.913206 24.664807 56.356970 24.265468 Q 57.800734 23.866129 58.814441 23.098169 Q 59.828148 22.330210 60.365719 21.208989 Q 60.903291 20.087768 60.903291 18.644003 Q 60.903291 15.940785 59.628478 14.189837 Q 58.353665 12.438889 56.141941 11.793803 L 60.381079 2.916190 Z M 50.827661 15.387854 Q 52.240706 15.387854 53.039384 15.863989 Q 53.838062 16.340124 53.838062 17.384550 Q 53.838062 18.336819 53.177617 18.690081 Q 52.517172 19.043342 51.380591 19.043342 L 50.059701 19.043342 L 49.414615 15.387854 Z M 61.978435 2.916190 L 65.818233 24.664807 L 72.975617 24.664807 L 69.135819 2.916190 Z M 77.091881 24.664807 L 86.092368 24.664807 Q 87.935471 24.664807 89.793934 24.157954 Q 91.652396 23.651100 93.142238 22.545238 Q 94.632079 21.439377 95.584349 19.673069 Q 96.536619 17.906762 96.536619 15.387854 Q 96.536619 12.531044 95.538272 10.211806 Q 94.539924 7.892568 92.758258 6.279853 Q 90.976591 4.667138 88.549839 3.791664 Q 86.123086 2.916190 83.266276 2.916190 L 73.252083 2.916190 Z M 81.269581 9.029148 L 83.573460 9.029148 Q 84.955788 9.029148 86.000213 9.505283 Q 87.044638 9.981418 87.751161 10.764737 Q 88.457684 11.548056 88.810945 12.546404 Q 89.164207 13.544751 89.164207 14.619895 Q 89.164207 15.449291 88.918460 16.186532 Q 88.672712 16.923774 88.150500 17.461345 Q 87.628287 17.998917 86.814250 18.321460 Q 86.000213 18.644003 84.894351 18.644003 L 82.989811 18.644003 Z M 111.742221 18.183228 Q 111.220008 18.797595 110.390612 19.181575 Q 109.561215 19.565555 108.455353 19.565555 Q 107.595238 19.565555 106.904075 19.196934 Q 106.212911 18.828314 106.212911 18.060354 Q 106.212911 17.445986 106.796560 17.108084 Q 107.380210 16.770182 108.516790 16.401561 Q 109.929836 15.940785 111.035698 15.357136 Q 112.141560 14.773487 112.909519 14.005527 Q 113.677479 13.237567 114.092177 12.254579 Q 114.506875 11.271591 114.506875 10.042855 Q 114.506875 7.954005 113.585324 6.479522 Q 112.663772 5.005040 111.235367 4.083488 Q 109.806962 3.161937 108.086733 2.731879 Q 106.366503 2.301822 104.738429 2.301822 Q 103.448256 2.301822 102.158084 2.516851 Q 100.867912 2.731879 99.685254 3.131218 Q 98.502596 3.530557 97.458171 4.114207 Q 96.413746 4.697856 95.645786 5.435097 L 100.499291 9.919982 Q 100.867912 9.489924 101.390124 9.152022 Q 101.912337 8.814120 102.480627 8.583732 Q 103.048917 8.353344 103.632567 8.215111 Q 104.216216 8.076878 104.707710 8.076878 Q 105.782854 8.076878 106.427940 8.430140 Q 107.073026 8.783401 107.073026 9.459206 Q 107.073026 10.012137 106.535454 10.442194 Q 105.997882 10.872252 104.523400 11.333027 Q 103.356101 11.701648 102.327035 12.193142 Q 101.297969 12.684636 100.545369 13.375800 Q 99.792768 14.066964 99.362711 15.034593 Q 98.932653 16.002222 98.932653 17.384550 Q 98.932653 19.074061 99.623817 20.517825 Q 100.314981 21.961589 101.589794 23.021373 Q 102.864607 24.081158 104.630914 24.680166 Q 106.397221 25.279175 108.516790 25.279175 Q 109.684089 25.279175 110.820669 25.079505 Q 111.957249 24.879836 112.970956 24.526574 Q 113.984663 24.173313 114.844778 23.681819 Q 115.704892 23.190325 116.288542 22.575957 Z M 129.681758 24.664807 Q 130.818339 24.664807 131.954919 24.419060 Q 133.091499 24.173313 134.013051 23.605023 Q 134.934602 23.036733 135.502892 22.130540 Q 136.071183 21.224348 136.071183 19.903457 Q 136.071183 17.661015 134.827088 16.263328 Q 133.582993 14.865642 131.678453 14.343429 L 131.678453 14.281992 Q 132.415695 14.128401 133.076140 13.759780 Q 133.736585 13.391159 134.243439 12.792151 Q 134.750292 12.193142 135.042117 11.394464 Q 135.333941 10.595786 135.333941 9.643516 Q 135.333941 7.984723 134.642778 6.725269 Q 133.951614 5.465816 132.707519 4.621060 Q 131.463425 3.776304 129.743195 3.346247 Q 128.022965 2.916190 125.995552 2.916190 L 115.889203 2.916190 L 119.729001 24.664807 Z M 125.319747 19.166216 L 124.828253 16.186532 L 126.794230 16.186532 Q 127.193569 16.186532 127.608267 16.247969 Q 128.022965 16.309406 128.360868 16.493716 Q 128.698770 16.678027 128.913799 17.000570 Q 129.128827 17.323113 129.128827 17.845325 Q 129.128827 18.551848 128.560537 18.859032 Q 127.992247 19.166216 127.101414 19.166216 Z M 124.060294 11.732366 L 123.476644 8.445499 L 125.289029 8.445499 Q 125.872678 8.445499 126.425609 8.522295 Q 126.978540 8.599091 127.393238 8.798761 Q 127.807937 8.998430 128.053684 9.351691 Q 128.299431 9.704953 128.299431 10.257884 Q 128.299431 10.964407 127.746500 11.348387 Q 127.193569 11.732366 126.149144 11.732366 Z M 137.084889 2.916190 L 140.924688 24.664807 L 155.147300 24.664807 L 154.102875 18.736159 L 146.576871 18.736159 L 146.208250 16.647308 L 153.396352 16.647308 L 152.413364 11.117999 L 145.225262 11.117999 L 144.825923 8.844838 L 153.242761 8.844838 L 152.198335 2.916190 Z M 167.311781 2.916190 L 164.332098 10.872252 L 163.471983 10.872252 L 162.120374 2.916190 L 155.270174 2.916190 L 159.109972 24.664807 L 168.049023 24.664807 Q 169.830689 24.664807 171.274453 24.265468 Q 172.718217 23.866129 173.731924 23.098169 Q 174.745631 22.330210 175.283203 21.208989 Q 175.820774 20.087768 175.820774 18.644003 Q 175.820774 15.940785 174.545961 14.189837 Q 173.271148 12.438889 171.059425 11.793803 L 175.298562 2.916190 Z M 165.745144 15.387854 Q 167.158190 15.387854 167.956868 15.863989 Q 168.755546 16.340124 168.755546 17.384550 Q 168.755546 18.336819 168.095100 18.690081 Q 167.434655 19.043342 166.298075 19.043342 L 164.977184 19.043342 L 164.332098 15.387854 Z M 194.190369 17.200239 Q 193.668157 17.998917 192.792683 18.490411 Q 191.917209 18.981906 190.534882 18.981906 Q 189.459738 18.981906 188.461390 18.536489 Q 187.463043 18.091072 186.710442 17.277035 Q 185.957842 16.462998 185.497066 15.295699 Q 185.036290 14.128401 185.036290 12.653918 Q 185.036290 10.841533 186.080716 9.658875 Q 187.125141 8.476217 189.398301 8.476217 Q 189.920514 8.476217 190.458086 8.568373 Q 190.995657 8.660528 191.333560 8.814120 L 191.671462 10.718660 L 188.108129 10.718660 L 189.091117 16.309406 L 198.951719 16.309406 L 196.862869 4.452109 Q 195.173358 3.561276 193.038430 2.931549 Q 190.903502 2.301822 188.507468 2.301822 Q 186.049997 2.301822 184.053302 2.931549 Q 182.056607 3.561276 180.628202 4.790011 Q 179.199797 6.018747 178.416478 7.815772 Q 177.633159 9.612798 177.633159 11.916677 Q 177.633159 14.712050 178.585429 17.138802 Q 179.537699 19.565555 181.242570 21.377940 Q 182.947440 23.190325 185.328115 24.234750 Q 187.708790 25.279175 190.565600 25.279175 Q 193.391691 25.279175 195.603415 24.465138 Q 197.815139 23.651100 198.982438 22.238055 Z M 214.648815 18.183228 Q 214.126602 18.797595 213.297206 19.181575 Q 212.467809 19.565555 211.361947 19.565555 Q 210.501833 19.565555 209.810669 19.196934 Q 209.119505 18.828314 209.119505 18.060354 Q 209.119505 17.445986 209.703155 17.108084 Q 210.286804 16.770182 211.423384 16.401561 Q 212.836430 15.940785 213.942292 15.357136 Q 215.048154 14.773487 215.816113 14.005527 Q 216.584073 13.237567 216.998771 12.254579 Q 217.413470 11.271591 217.413470 10.042855 Q 217.413470 7.954005 216.491918 6.479522 Q 215.570366 5.005040 214.141961 4.083488 Q 212.713556 3.161937 210.993327 2.731879 Q 209.273097 2.301822 207.645023 2.301822 Q 206.354850 2.301822 205.064678 2.516851 Q 203.774506 2.731879 202.591848 3.131218 Q 201.409190 3.530557 200.364765 4.114207 Q 199.320340 4.697856 198.552380 5.435097 L 203.405885 9.919982 Q 203.774506 9.489924 204.296719 9.152022 Q 204.818931 8.814120 205.387221 8.583732 Q 205.955511 8.353344 206.539161 8.215111 Q 207.122810 8.076878 207.614304 8.076878 Q 208.689448 8.076878 209.334534 8.430140 Q 209.979620 8.783401 209.979620 9.459206 Q 209.979620 10.012137 209.442048 10.442194 Q 208.904477 10.872252 207.429994 11.333027 Q 206.262695 11.701648 205.233629 12.193142 Q 204.204563 12.684636 203.451963 13.375800 Q 202.699363 14.066964 202.269305 15.034593 Q 201.839248 16.002222 201.839248 17.384550 Q 201.839248 19.074061 202.530411 20.517825 Q 203.221575 21.961589 204.496388 23.021373 Q 205.771201 24.081158 207.537508 24.680166 Q 209.303816 25.279175 211.423384 25.279175 Q 212.590683 25.279175 213.727263 25.079505 Q 214.863843 24.879836 215.877550 24.526574 Q 216.891257 24.173313 217.751372 23.681819 Q 218.611487 23.190325 219.195136 22.575957 Z M 241.005190 2.916190 L 240.513696 6.233775 L 233.448467 6.233775 L 231.636082 2.916190 L 223.710739 2.916190 L 237.073237 24.664807 L 244.568523 24.664807 L 248.377603 2.916190 Z M 239.284961 17.261676 L 236.182404 11.670930 L 239.930047 11.670930 Z M 264.596911 18.183228 Q 264.074698 18.797595 263.245302 19.181575 Q 262.415906 19.565555 261.310044 19.565555 Q 260.449929 19.565555 259.758765 19.196934 Q 259.067601 18.828314 259.067601 18.060354 Q 259.067601 17.445986 259.651251 17.108084 Q 260.234900 16.770182 261.371480 16.401561 Q 262.784526 15.940785 263.890388 15.357136 Q 264.996250 14.773487 265.764210 14.005527 Q 266.532169 13.237567 266.946868 12.254579 Q 267.361566 11.271591 267.361566 10.042855 Q 267.361566 7.954005 266.440014 6.479522 Q 265.518463 5.005040 264.090058 4.083488 Q 262.661653 3.161937 260.941423 2.731879 Q 259.221193 2.301822 257.593119 2.301822 Q 256.302947 2.301822 255.012774 2.516851 Q 253.722602 2.731879 252.539944 3.131218 Q 251.357286 3.530557 250.312861 4.114207 Q 249.268436 4.697856 248.500477 5.435097 L 253.353982 9.919982 Q 253.722602 9.489924 254.244815 9.152022 Q 254.767027 8.814120 255.335317 8.583732 Q 255.903608 8.353344 256.487257 8.215111 Q 257.070906 8.076878 257.562400 8.076878 Q 258.637544 8.076878 259.282630 8.430140 Q 259.927716 8.783401 259.927716 9.459206 Q 259.927716 10.012137 259.390144 10.442194 Q 258.852573 10.872252 257.378090 11.333027 Q 256.210791 11.701648 255.181726 12.193142 Q 254.152660 12.684636 253.400059 13.375800 Q 252.647459 14.066964 252.217401 15.034593 Q 251.787344 16.002222 251.787344 17.384550 Q 251.787344 19.074061 252.478508 20.517825 Q 253.169671 21.961589 254.444484 23.021373 Q 255.719297 24.081158 257.485605 24.680166 Q 259.251912 25.279175 261.371480 25.279175 Q 262.538779 25.279175 263.675359 25.079505 Q 264.811940 24.879836 265.825646 24.526574 Q 266.839353 24.173313 267.699468 23.681819 Q 268.559583 23.190325 269.143232 22.575957 Z" transform="scale(0.720000,0.720000) translate(95.833330,27.777777)" fill="#ffffff" opacity="1.000000"></path>
        <path d="M 17.178174 2.556399 L 20.011507 18.682787 L 19.917063 18.682787 L 9.764286 2.556399 L 9.339286 2.556399 L 4.853175 18.682787 L 4.782341 18.682787 L 1.949008 2.556399 L 1.429564 2.556399 L 4.380952 19.273065 L 5.183730 19.273065 L 9.693452 3.311954 L 19.704563 19.273065 L 20.649007 19.273065 L 17.697619 2.556399 Z M 34.249007 2.556399 L 33.399007 7.349454 L 23.954563 7.349454 L 20.908730 2.556399 L 20.271230 2.556399 L 31.014285 19.273065 L 31.793451 19.273065 L 34.768451 2.556399 Z M 31.344840 18.918898 L 24.237896 7.798065 L 33.328174 7.798065 Z M 39.797618 11.646676 L 49.100395 19.273065 L 49.855951 19.273065 L 40.435118 11.552232 L 47.707340 2.556399 L 47.046229 2.556399 L 39.774007 11.552232 L 39.750396 11.552232 L 38.168451 2.556399 L 37.649007 2.556399 L 40.600396 19.273065 L 41.119840 19.273065 L 39.774007 11.646676 Z M 50.139284 2.556399 L 53.090673 19.273065 L 62.369839 19.273065 L 62.275395 18.800843 L 53.492062 18.800843 L 52.193451 11.457787 L 60.646228 11.457787 L 60.575395 10.985565 L 52.122617 10.985565 L 50.729562 3.028621 L 60.221228 3.028621 L 60.126784 2.556399 Z M 69.642061 2.556399 L 72.593450 19.273065 L 81.872616 19.273065 L 81.778172 18.800843 L 72.994839 18.800843 L 71.696228 11.457787 L 80.149005 11.457787 L 80.078172 10.985565 L 71.625394 10.985565 L 70.232339 3.028621 L 79.724005 3.028621 L 79.629561 2.556399 Z M 87.633727 2.556399 L 86.830949 2.556399 L 84.092061 19.273065 L 84.611505 19.273065 L 87.279560 3.028621 L 87.326783 3.028621 L 96.936504 19.273065 L 97.550393 19.273065 Z M 97.125393 2.556399 L 100.076782 19.273065 L 109.355948 19.273065 L 109.261504 18.800843 L 100.478171 18.800843 L 99.179560 11.457787 L 107.632337 11.457787 L 107.561504 10.985565 L 99.108727 10.985565 L 97.715671 3.028621 L 107.207337 3.028621 L 107.112893 2.556399 Z M 120.476781 2.556399 L 116.651782 10.985565 L 112.732337 10.985565 L 111.244837 2.556399 L 110.725393 2.556399 L 113.676782 19.273065 L 117.572615 19.273065 Q 118.422615 19.273065 119.272615 19.095982 Q 120.122615 18.918898 120.819142 18.517509 Q 121.515670 18.116121 121.940670 17.431398 Q 122.365670 16.746676 122.365670 15.731398 Q 122.365670 14.267510 121.846226 13.358482 Q 121.326781 12.449454 120.547615 11.930010 Q 119.768448 11.410565 118.859420 11.221676 Q 117.950393 11.032787 117.171226 11.009176 L 121.043448 2.556399 Z M 121.846226 15.660565 Q 121.846226 16.557787 121.468448 17.159871 Q 121.090670 17.761954 120.476781 18.139732 Q 119.862892 18.517509 119.048309 18.670982 Q 118.233726 18.824454 117.383726 18.824454 L 114.101782 18.824454 L 112.803171 11.434176 L 116.580948 11.434176 Q 117.785115 11.434176 118.753170 11.670287 Q 119.721226 11.906399 120.417754 12.425843 Q 121.114281 12.945287 121.480254 13.748065 Q 121.846226 14.550843 121.846226 15.660565 Z M 129.661503 9.875843 L 128.362892 2.556399 L 127.843448 2.556399 L 129.142059 9.875843 L 125.317059 19.273065 L 125.883726 19.273065 L 129.472614 10.395288 L 136.674003 19.273065 L 137.311503 19.273065 Z M 143.544836 18.800843 L 140.687892 2.556399 L 140.168447 2.556399 L 143.025392 18.800843 L 137.240670 18.800843 L 137.335114 19.273065 L 149.235114 19.273065 L 149.140669 18.800843 Z M 160.497613 2.556399 L 161.985113 10.961954 L 151.029558 10.961954 L 149.542058 2.556399 L 149.022614 2.556399 L 151.974002 19.273065 L 152.493447 19.273065 L 151.100391 11.434176 L 162.055946 11.434176 L 163.449002 19.273065 L 163.968446 19.273065 L 161.017058 2.556399 Z M 166.022613 2.556399 L 168.974002 19.273065 L 169.493446 19.273065 L 166.542057 2.556399 Z M 183.471223 2.556399 L 174.971224 18.682787 L 174.900390 18.682787 L 172.067057 2.556399 L 171.547613 2.556399 L 174.499002 19.273065 L 175.230946 19.273065 L 183.754557 3.170288 L 183.825390 3.170288 L 186.658723 19.273065 L 187.178168 19.273065 L 184.226779 2.556399 Z M 197.165667 2.084177 Q 195.276779 2.084177 193.883723 2.627232 Q 192.490668 3.170288 191.581640 4.138343 Q 190.672612 5.106399 190.235806 6.440427 Q 189.799001 7.774454 189.799001 9.356399 Q 189.799001 11.386954 190.530945 13.264037 Q 191.262890 15.141121 192.573306 16.581398 Q 193.883723 18.021676 195.678167 18.883482 Q 197.472612 19.745287 199.597612 19.745287 Q 200.376778 19.745287 201.144139 19.615426 Q 201.911500 19.485565 202.596223 19.214037 Q 203.280945 18.942509 203.859417 18.541121 Q 204.437889 18.139732 204.862889 17.596676 L 204.485111 17.218898 Q 204.083723 17.738343 203.528862 18.127926 Q 202.974000 18.517509 202.324695 18.777232 Q 201.675389 19.036954 200.967056 19.155009 Q 200.258723 19.273065 199.574001 19.273065 Q 197.590667 19.273065 195.890667 18.446676 Q 194.190667 17.620287 192.951084 16.250843 Q 191.711501 14.881398 191.014973 13.110565 Q 190.318445 11.339732 190.318445 9.450843 Q 190.318445 8.010565 190.719834 6.759177 Q 191.121223 5.507788 191.947612 4.575149 Q 192.774001 3.642510 194.072612 3.099454 Q 195.371223 2.556399 197.165667 2.556399 Q 198.724001 2.556399 200.105251 2.910566 Q 201.486500 3.264732 202.407334 3.807788 L 203.564278 10.371676 L 199.219834 10.371676 L 199.314278 10.820287 L 204.154556 10.820287 L 202.855945 3.524454 Q 201.887889 2.910566 200.376778 2.497371 Q 198.865667 2.084177 197.165667 2.084177 Z M 224.389277 17.407787 Q 223.940666 18.234176 222.783722 18.753621 Q 221.626778 19.273065 220.210111 19.273065 Q 219.407333 19.273065 218.498305 19.036954 Q 217.589278 18.800843 216.833722 18.281398 Q 216.078167 17.761954 215.570528 16.970982 Q 215.062889 16.180010 215.062889 15.046676 Q 215.062889 14.220287 215.334417 13.665426 Q 215.605944 13.110565 216.089972 12.720982 Q 216.574000 12.331399 217.246917 12.048065 Q 217.919833 11.764732 218.746222 11.481399 Q 219.714278 11.127232 220.540666 10.749454 Q 221.367055 10.371676 221.957333 9.864038 Q 222.547611 9.356399 222.878166 8.671676 Q 223.208722 7.986954 223.208722 7.042510 Q 223.208722 5.909177 222.783722 4.988343 Q 222.358722 4.067510 221.579555 3.430010 Q 220.800389 2.792510 219.714278 2.438343 Q 218.628167 2.084177 217.305944 2.084177 Q 216.550389 2.084177 215.818444 2.249454 Q 215.086500 2.414732 214.460806 2.721677 Q 213.835111 3.028621 213.339278 3.441816 Q 212.843445 3.855010 212.536500 4.327232 L 212.937889 4.634177 Q 213.174000 4.232788 213.599000 3.855010 Q 214.024000 3.477232 214.602472 3.193899 Q 215.180944 2.910566 215.901083 2.733482 Q 216.621222 2.556399 217.447611 2.556399 Q 218.580944 2.556399 219.537194 2.851538 Q 220.493444 3.146677 221.201778 3.725149 Q 221.910111 4.303621 222.299694 5.130010 Q 222.689277 5.956399 222.689277 7.018899 Q 222.689277 7.916121 222.346916 8.553621 Q 222.004555 9.191121 221.414278 9.651538 Q 220.824000 10.111954 220.033028 10.442510 Q 219.242055 10.773065 218.321222 11.080010 Q 217.542055 11.339732 216.857333 11.658482 Q 216.172611 11.977232 215.653167 12.414037 Q 215.133722 12.850843 214.838583 13.488343 Q 214.543444 14.125843 214.543444 15.023065 Q 214.543444 16.227232 215.062889 17.112648 Q 215.582333 17.998065 216.396917 18.588343 Q 217.211500 19.178621 218.238583 19.461954 Q 219.265666 19.745287 220.257333 19.745287 Q 221.957333 19.745287 223.102472 19.155009 Q 224.247611 18.564732 224.790666 17.738343 Z M 238.248999 2.556399 L 239.736499 10.961954 L 228.780944 10.961954 L 227.293444 2.556399 L 226.774000 2.556399 L 229.725388 19.273065 L 230.244833 19.273065 L 228.851777 11.434176 L 239.807332 11.434176 L 241.200388 19.273065 L 241.719832 19.273065 L 238.768444 2.556399 Z M 255.319832 2.556399 L 254.469832 7.349454 L 245.025388 7.349454 L 241.979555 2.556399 L 241.342055 2.556399 L 252.085110 19.273065 L 252.864276 19.273065 L 255.839276 2.556399 Z M 252.415665 18.918898 L 245.308721 7.798065 L 254.398998 7.798065 Z M 268.471220 2.556399 L 264.646220 10.985565 L 260.726776 10.985565 L 259.239276 2.556399 L 258.719832 2.556399 L 261.671220 19.273065 L 265.567054 19.273065 Q 266.417054 19.273065 267.267054 19.095982 Q 268.117054 18.918898 268.813581 18.517509 Q 269.510109 18.116121 269.935109 17.431398 Q 270.360109 16.746676 270.360109 15.731398 Q 270.360109 14.267510 269.840665 13.358482 Q 269.321220 12.449454 268.542053 11.930010 Q 267.762887 11.410565 266.853859 11.221676 Q 265.944831 11.032787 265.165665 11.009176 L 269.037887 2.556399 Z M 269.840665 15.660565 Q 269.840665 16.557787 269.462887 17.159871 Q 269.085109 17.761954 268.471220 18.139732 Q 267.857331 18.517509 267.042748 18.670982 Q 266.228165 18.824454 265.378165 18.824454 L 262.096220 18.824454 L 260.797609 11.434176 L 264.575387 11.434176 Q 265.779554 11.434176 266.747609 11.670287 Q 267.715665 11.906399 268.412192 12.425843 Q 269.108720 12.945287 269.474692 13.748065 Q 269.840665 14.550843 269.840665 15.660565 Z M 274.704553 10.773065 L 273.264276 2.556399 L 272.744831 2.556399 L 275.696220 19.273065 L 279.922609 19.273065 Q 280.748997 19.273065 281.551775 19.084176 Q 282.354553 18.895287 282.992053 18.470287 Q 283.629553 18.045287 284.030942 17.336954 Q 284.432331 16.628621 284.432331 15.566121 Q 284.432331 14.621676 284.101775 13.748065 Q 283.771220 12.874454 283.074692 12.213343 Q 282.378164 11.552232 281.292053 11.162649 Q 280.205942 10.773065 278.718442 10.773065 Z M 283.912886 15.589732 Q 283.912886 16.463343 283.570525 17.089037 Q 283.228164 17.714732 282.673303 18.092509 Q 282.118442 18.470287 281.421914 18.647371 Q 280.725386 18.824454 280.040664 18.824454 L 276.121220 18.824454 L 274.798998 11.221676 L 278.836498 11.221676 Q 281.315664 11.221676 282.614275 12.425843 Q 283.912886 13.630010 283.912886 15.589732 Z M 285.967053 2.556399 L 288.918442 19.273065 L 298.197608 19.273065 L 298.103163 18.800843 L 289.319830 18.800843 L 288.021219 11.457787 L 296.473997 11.457787 L 296.403164 10.985565 L 287.950386 10.985565 L 286.557331 3.028621 L 296.048997 3.028621 L 295.954552 2.556399 Z M 309.318441 2.556399 L 305.493441 10.985565 L 301.573997 10.985565 L 300.086497 2.556399 L 299.567052 2.556399 L 302.518441 19.273065 L 306.414274 19.273065 Q 307.264274 19.273065 308.114274 19.095982 Q 308.964274 18.918898 309.660802 18.517509 Q 310.357330 18.116121 310.782330 17.431398 Q 311.207330 16.746676 311.207330 15.731398 Q 311.207330 14.267510 310.687885 13.358482 Q 310.168441 12.449454 309.389274 11.930010 Q 308.610108 11.410565 307.701080 11.221676 Q 306.792052 11.032787 306.012885 11.009176 L 309.885107 2.556399 Z M 310.687885 15.660565 Q 310.687885 16.557787 310.310107 17.159871 Q 309.932330 17.761954 309.318441 18.139732 Q 308.704552 18.517509 307.889969 18.670982 Q 307.075385 18.824454 306.225385 18.824454 L 302.943441 18.824454 L 301.644830 11.434176 L 305.422608 11.434176 Q 306.626774 11.434176 307.594830 11.670287 Q 308.562885 11.906399 309.259413 12.425843 Q 309.955941 12.945287 310.321913 13.748065 Q 310.687885 14.550843 310.687885 15.660565 Z" transform="scale(0.720000,0.720000) translate(84.722219,0.000000)" fill="#ffffff" opacity="1.000000"></path>
    </g>
</svg>